HIERARCHY
ROOT Hips
{
 OFFSET 0.000000 0.000000 0.000000
 CHANNELS 6 Xposition Yposition Zposition Yrotation Xrotation Zrotation
 JOINT Chest
 {
  OFFSET 0.000000 9.585900 0.002600
  CHANNELS 3 Yrotation Xrotation Zrotation
  JOINT Chest2
  {
   OFFSET 0.000000 9.601200 -0.005300
   CHANNELS 3 Yrotation Xrotation Zrotation
   JOINT Chest3
   {
    OFFSET 0.000000 9.561800 0.000000
    CHANNELS 3 Yrotation Xrotation Zrotation
    JOINT Chest4
    {
     OFFSET 0.000000 9.552100 0.000000
     CHANNELS 3 Yrotation Xrotation Zrotation
     JOINT Neck
     {
      OFFSET 0.000000 14.453000 0.000000
      CHANNELS 3 Yrotation Xrotation Zrotation
      JOINT Head
      {
       OFFSET 0.000000 8.936500 -0.011300
       CHANNELS 3 Yrotation Xrotation Zrotation
       End Site
       {
        OFFSET 0.000000 17.073600 -0.006000
       }
      }
     }
     JOINT RightCollar
     {
      OFFSET -2.921100 9.558500 0.000000
      CHANNELS 3 Yrotation Xrotation Zrotation
      JOINT RightShoulder
      {
       OFFSET -13.519700 0.000000 0.000000
       CHANNELS 3 Yrotation Xrotation Zrotation
       JOINT RightElbow
       {
        OFFSET 0.000000 -29.696600 0.000000
        CHANNELS 3 Yrotation Xrotation Zrotation
        JOINT RightWrist
        {
         OFFSET 0.000000 -24.004700 0.000000
         CHANNELS 3 Yrotation Xrotation Zrotation
         End Site
         {
          OFFSET 0.000000 -17.728500 0.000000
         }
        }
       }
      }
     }
     JOINT LeftCollar
     {
      OFFSET 2.921100 9.558500 0.000000
      CHANNELS 3 Yrotation Xrotation Zrotation
      JOINT LeftShoulder
      {
       OFFSET 13.519700 0.000000 0.000000
       CHANNELS 3 Yrotation Xrotation Zrotation
       JOINT LeftElbow
       {
        OFFSET 0.000000 -29.696600 0.000000
        CHANNELS 3 Yrotation Xrotation Zrotation
        JOINT LeftWrist
        {
         OFFSET 0.000000 -24.004700 0.000000
         CHANNELS 3 Yrotation Xrotation Zrotation
         End Site
         {
          OFFSET 0.000000 -17.728500 0.000000
         }
        }
       }
      }
     }
    }
   }
  }
 }
 JOINT RightHip
 {
  OFFSET -7.771700 -0.012900 -0.001300
  CHANNELS 3 Yrotation Xrotation Zrotation
  JOINT RightKnee
  {
   OFFSET 0.000000 -40.869800 0.001200
   CHANNELS 3 Yrotation Xrotation Zrotation
   JOINT RightAnkle
   {
    OFFSET 0.000000 -39.717900 0.002100
    CHANNELS 3 Yrotation Xrotation Zrotation
    JOINT RightToe
    {
     OFFSET 0.000000 -4.965400 11.033500
     CHANNELS 3 Yrotation Xrotation Zrotation
     End Site
     {
      OFFSET 0.000000 -1.423100 5.872300
     }
    }
   }
  }
 }
 JOINT LeftHip
 {
  OFFSET 7.771700 -0.012900 -0.001300
  CHANNELS 3 Yrotation Xrotation Zrotation
  JOINT LeftKnee
  {
   OFFSET 0.000000 -40.869800 0.001200
   CHANNELS 3 Yrotation Xrotation Zrotation
   JOINT LeftAnkle
   {
    OFFSET 0.000000 -39.717900 0.002100
    CHANNELS 3 Yrotation Xrotation Zrotation
    JOINT LeftToe
    {
     OFFSET 0.000000 -4.965400 11.033500
     CHANNELS 3 Yrotation Xrotation Zrotation
     End Site
     {
      OFFSET 0.000000 -1.423100 5.872300
     }
    }
   }
  }
 }
}
MOTION
Frames: 15
Frame Time: 0.008333
0.000000 85.388000 0.000000 0.000000 -5.767877 0.000000 0.000000 11.653817 0.000000 0.000000 -5.885947 0.000000 0.000000 -0.000000 0.000000 0.000000 -0.000000 0.000000 0.000000 12.528835 0.000000 0.000000 0.711642 0.000000 0.000000 -0.000000 0.000000 0.000000 0.000000 -90.000000 0.000000 -2.309062 0.000000 0.000000 2.309062 0.000000 0.000000 -0.000000 0.000000 0.000000 -0.000000 90.000000 0.000000 -2.309062 0.000000 0.000000 2.309062 0.000000 0.000000 8.520406 0.000000 0.000000 1.905762 0.000000 -0.000000 -4.658285 0.000000 0.000000 -0.000000 0.000000 0.000000 8.520406 0.000000 0.000000 1.905762 0.000000 -0.000000 -4.658285 0.000000 0.000000 -0.000000 0.000000
-13.435332 55.310000 23.565028 -175.611981 -29.815161 -11.356704 -1.722205 16.264285 6.571907 -1.236911 9.285262 2.611979 -1.502779 11.635003 3.250426 -1.218659 9.265525 2.601942 4.619870 19.893651 -2.274207 5.504044 -4.463693 -3.513685 3.262015 -1.079524 -8.718618 0.753342 -22.087359 7.108931 172.908332 -72.462634 -147.024261 9.886099 4.305791 -25.065486 -14.280709 -1.576741 -4.477505 -10.648052 -23.343647 -1.614237 -116.946690 -49.036980 122.166057 15.901984 -18.897656 14.657451 -17.419199 -35.583557 6.184714 -45.056792 87.336947 -48.548854 1.524952 -19.212290 2.771546 -0.121907 0.499554 -0.015579 -17.172535 -48.054772 13.574612 168.235213 79.234371 163.056879 -1.656039 -16.067405 2.567859 -0.630025 -2.703227 -0.253931
-13.447436 55.315675 23.565751 -175.593646 -29.794615 -11.336158 -1.727236 16.234167 6.542431 -1.243094 9.282107 2.613490 -1.463530 11.590077 3.238873 -1.215077 9.257465 2.606367 4.627415 19.725948 -2.199837 5.491666 -4.657637 -3.433670 3.077816 -1.166403 -8.664053 0.522290 -21.950998 6.997649 173.124742 -72.644703 -147.113633 9.884992 4.162547 -25.059172 -14.129933 -1.666787 -4.436325 -10.571592 -23.238544 -1.603977 -116.941594 -49.125656 121.964030 15.812109 -18.892049 14.650963 -17.415869 -35.612939 6.157437 -45.329043 87.333266 -48.849397 1.501266 -19.207007 2.815105 -0.135251 0.483713 -0.024085 -17.132846 -48.068395 13.565901 168.335638 79.257751 163.132805 -1.695123 -16.080109 2.588268 -0.625728 -2.686417 -0.229239
-13.463838 55.320044 23.568127 -175.555845 -29.748972 -11.301883 -1.774136 16.189758 6.489361 -1.189865 9.240081 2.602149 -1.446038 11.555698 3.239206 -1.216642 9.245411 2.611793 4.620776 19.550042 -2.124713 5.463503 -4.861194 -3.349422 2.882167 -1.235934 -8.593430 0.256018 -21.797459 6.880177 173.245362 -72.829064 -147.105403 9.871318 3.954557 -25.067539 -13.975177 -1.725659 -4.390939 -10.477861 -23.128194 -1.572102 -116.888708 -49.184177 121.732982 15.714930 -18.899487 14.623733 -17.422738 -35.671159 6.103130 -45.525391 87.338035 -49.077246 1.499168 -19.197568 2.857666 -0.149617 0.465790 -0.031392 -17.105694 -48.107498 13.534424 168.443220 79.281674 163.218598 -1.771185 -16.115394 2.613281 -0.578467 -2.645507 -0.207313
-13.472835 55.326109 23.569532 -175.527549 -29.701232 -11.308194 -1.766480 16.128857 6.482277 -1.164981 9.195388 2.595170 -1.475762 11.574836 3.257058 -1.172930 9.165293 2.590896 4.605482 19.366388 -2.050212 5.425966 -5.073312 -3.263748 2.689525 -1.282382 -8.506098 -0.047237 -21.627944 6.756356 173.215226 -73.016943 -146.939391 9.853125 3.675163 -25.102673 -13.805501 -1.747946 -4.351173 -10.366143 -23.011378 -1.515451 -116.810659 -49.238443 121.482979 15.612897 -18.941812 14.583181 -17.441593 -35.707398 6.094732 -45.337086 87.331726 -48.905513 1.529878 -19.193099 2.874686 -0.156688 0.453342 -0.037081 -17.135037 -48.143823 13.556580 168.502151 79.297416 163.270663 -1.782892 -16.122617 2.608386 -0.555655 -2.637712 -0.216375
-13.478424 55.332602 23.569920 -175.507050 -29.649174 -11.328424 -1.728243 16.046433 6.487664 -1.170775 9.158734 2.596149 -1.445043 11.502012 3.247080 -1.176105 9.144876 2.596365 4.584949 19.176560 -1.974141 5.382170 -5.292005 -3.175293 2.500553 -1.302265 -8.397164 -0.387841 -21.442036 6.626028 173.008301 -73.210216 -146.588299 9.843621 3.321068 -25.175951 -13.617734 -1.730654 -4.322812 -10.238048 -22.883949 -1.434450 -116.743921 -49.317035 121.224365 15.515357 -19.039850 14.539783 -17.459109 -35.735358 6.104745 -44.913399 87.315032 -48.477880 1.538134 -19.196131 2.881320 -0.132347 0.456680 -0.037961 -17.182785 -48.184793 13.617761 168.514205 79.303029 163.259883 -1.780537 -16.111875 2.627386 -0.580912 -2.647802 -0.227489
-13.487324 55.338920 23.567677 -175.499146 -29.603208 -11.317809 -1.724353 15.987224 6.470937 -1.135212 9.089674 2.573689 -1.412264 11.409080 3.230649 -1.178801 9.121261 2.600038 4.558530 18.983068 -1.891515 5.330275 -5.514625 -3.078477 2.311131 -1.293735 -8.258888 -0.760589 -21.244968 6.486355 172.610613 -73.415852 -146.040993 9.851093 2.897553 -25.304208 -13.422565 -1.675083 -4.304364 -10.089336 -22.743969 -1.330271 -116.701416 -49.451763 120.953585 15.441422 -19.214704 14.493408 -17.442156 -35.782633 6.093471 -44.948098 87.313060 -48.522187 1.532273 -19.178820 2.921067 -0.161832 0.430722 -0.052572 -17.185482 -48.225790 13.663859 168.562068 79.305327 163.261533 -1.806012 -16.097254 2.676067 -0.607526 -2.666783 -0.237055
-13.500635 55.343417 23.565202 -175.488176 -29.543288 -11.274988 -1.716093 15.894315 6.408589 -1.109777 9.024655 2.559741 -1.394335 11.333213 3.218190 -1.163983 9.060680 2.589784 4.522865 18.790426 -1.800126 5.266187 -5.736366 -2.970009 2.122981 -1.257096 -8.093282 -1.159863 -21.046600 6.329152 172.094384 -73.647971 -145.361788 9.885237 2.421388 -25.514910 -13.233398 -1.589217 -4.296742 -9.915587 -22.594181 -1.205144 -116.681244 -49.670452 120.664951 15.408655 -19.473651 14.430171 -17.381675 -35.875488 6.037142 -45.474885 87.329655 -49.051054 1.527222 -19.126779 2.990812 -0.186846 0.367261 -0.075795 -17.152975 -48.270040 13.673301 168.763641 79.335740 163.429381 -1.896437 -16.139370 2.681077 -0.557848 -2.623590 -0.184106
-13.501503 55.349609 23.562068 -175.485762 -29.476752 -11.296602 -1.623467 15.757327 6.405431 -1.134656 8.983583 2.570133 -1.376645 11.248811 3.204084 -1.149294 8.993255 2.578246 4.478492 18.607939 -1.700883 5.190897 -5.946716 -2.851120 1.938204 -1.197862 -7.910025 -1.567612 -20.854751 6.145156 171.607497 -73.922353 -144.694127 9.962375 1.914722 -25.828647 -13.049300 -1.487395 -4.305388 -9.714692 -22.436716 -1.066499 -116.696233 -49.995941 120.357934 15.420132 -19.802416 14.359195 -17.399731 -35.921196 6.092489 -45.148010 87.316788 -48.752906 1.540684 -19.109950 3.028517 -0.175137 0.361263 -0.081272 -17.207151 -48.316946 13.765156 168.814075 79.338422 163.456183 -1.902983 -16.151770 2.697250 -0.581998 -2.618494 -0.184944
-13.498066 55.355749 23.559175 -175.472072 -29.392866 -11.343091 -1.564719 15.627033 6.428313 -1.135691 8.920763 2.566708 -1.360361 11.158137 3.190046 -1.135673 8.920788 2.566740 4.430795 18.449715 -1.594215 5.110534 -6.129648 -2.723784 1.757352 -1.123395 -7.718365 -1.968349 -20.672407 5.936094 171.192361 -74.242909 -144.090497 10.070775 1.367289 -26.246990 -12.864811 -1.382453 -4.333788 -9.490454 -22.274360 -0.919751 -116.740736 -50.443564 120.020135 15.448486 -20.178729 14.244037 -17.461262 -35.961217 6.156357 -44.431494 87.295442 -48.050304 1.624203 -19.113953 3.009193 -0.113318 0.382018 -0.070523 -17.302516 -48.376714 13.876128 168.843007 79.340088 163.476385 -1.879968 -16.162583 2.698710 -0.608764 -2.612830 -0.200534
-13.502055 55.360779 23.555112 -175.464372 -29.303459 -11.336522 -1.534432 15.502404 6.402452 -1.122921 8.844669 2.555545 -1.345163 11.062902 3.176415 -1.122957 8.844669 2.555521 4.382421 18.328756 -1.477481 5.027502 -6.270770 -2.585858 1.577924 -1.041513 -7.523105 -2.366951 -20.496535 5.716952 170.740766 -74.599969 -143.449926 10.161322 0.739134 -26.748362 -12.677354 -1.276453 -4.381304 -9.259020 -22.113651 -0.762880 -116.789007 -51.017058 119.636837 15.494724 -20.577704 14.062362 -17.477034 -36.048767 6.164711 -44.485402 87.298003 -48.122956 1.668478 -19.090552 3.031250 -0.092418 0.355750 -0.074380 -17.341755 -48.456676 13.917935 168.874251 79.342180 163.499558 -1.888402 -16.164549 2.703977 -0.604697 -2.615256 -0.210948
-13.519294 55.368265 23.542227 -175.463902 -29.262622 -11.246244 -1.513788 15.421998 6.293391 -1.110857 8.766028 2.544619 -1.330765 10.964418 3.163092 -1.110899 8.766008 2.544565 4.331183 18.251622 -1.349666 4.939358 -6.363194 -2.435727 1.397377 -0.959399 -7.325467 -2.767348 -20.322948 5.498307 170.158073 -74.989813 -142.686847 10.203353 0.010444 -27.298724 -12.480390 -1.166700 -4.442816 -9.043264 -21.958557 -0.597140 -116.816046 -51.706279 119.209042 15.574067 -20.962912 13.818793 -17.427899 -36.156532 6.068113 -45.763206 87.341305 -49.451057 1.706071 -18.994055 3.118569 -0.223667 0.235005 -0.112059 -17.269751 -48.505597 13.846319 169.012553 79.343444 163.605373 -1.955931 -16.151652 2.721833 -0.549012 -2.641949 -0.210299
-13.532035 55.374330 23.533079 -175.425100 -29.178025 -11.198328 -1.555197 15.324392 6.218592 -1.074049 8.667537 2.522364 -1.317012 10.864896 3.151449 -1.099329 8.686514 2.534966 4.273687 18.222373 -1.214343 4.843313 -6.402792 -2.276459 1.218718 -0.883612 -7.125172 -3.157412 -20.148315 5.271457 169.400543 -75.408841 -141.780240 10.199943 -0.800348 -27.876720 -12.274698 -1.056834 -4.511474 -8.856361 -21.806598 -0.430687 -116.784762 -52.469996 118.730597 15.662651 -21.294632 13.508378 -17.454558 -36.260829 6.021381 -46.519986 87.350233 -50.239085 1.659450 -18.944780 3.199755 -0.274447 0.180951 -0.140765 -17.300994 -48.567833 13.841730 169.197654 79.371520 163.750559 -2.033438 -16.183018 2.717767 -0.481779 -2.609309 -0.177579
-13.536195 55.382961 23.521903 -175.399289 -29.101336 -11.197710 -1.571589 15.231953 6.199107 -1.032338 8.567697 2.504805 -1.303294 10.765372 3.142438 -1.087800 8.606951 2.527490 4.208205 18.253262 -1.074092 4.738313 -6.375964 -2.110419 1.049210 -0.814243 -6.921113 -3.524794 -19.968790 5.026639 168.400423 -75.840043 -140.686037 10.174039 -1.646713 -28.466699 -12.072618 -0.950156 -4.578811 -8.690197 -21.652746 -0.272317 -116.635842 -53.236451 118.175412 15.740454 -21.553472 13.172875 -17.503988 -36.315537 6.033404 -46.715834 87.326277 -50.462205 1.640340 -18.940350 3.267767 -0.326372 0.184686 -0.167660 -17.358708 -48.623443 13.880628 169.317965 79.378337 163.853389 -2.035912 -16.194524 2.707877 -0.479586 -2.608552 -0.161713
-13.538140 55.391469 23.510990 -175.381166 -29.017194 -11.210055 -1.488195 15.057738 6.188194 -1.076218 8.526119 2.521185 -1.289390 10.664328 3.134864 -1.076193 8.526168 2.521154 4.137023 18.363178 -0.928615 4.627096 -6.261428 -1.937980 0.894680 -0.738553 -6.711140 -3.867292 -19.784572 4.769889 167.024162 -76.253470 -139.282792 10.161682 -2.465999 -29.033599 -11.881506 -0.840887 -4.636206 -8.518924 -21.491470 -0.130302 -116.322714 -53.934406 117.511886 15.783546 -21.750852 12.851981 -17.560102 -36.380161 6.066008 -47.028061 87.302570 -50.795187 1.642534 -18.906409 3.310801 -0.344492 0.182595 -0.171398 -17.424042 -48.690013 13.933099 169.367321 79.374241 163.897619 -2.027750 -16.195701 2.707380 -0.488820 -2.620895 -0.172812
